<svg viewBox="0 0 732 92" xmlns="http://www.w3.org/2000/svg" fill-rule="evenodd" clip-rule="evenodd"><path d="M0 19.5v71.4h13l.1-39.9h49.4v-11.1h-49.4l-.1-28.7h56v-11.2h-49.5l-19.5 19.5z" fill="#232871"/><path d="M268.6 0h-49.5l-19.4 19.5v71.4h12.9l.1-39.9h49.4v-11.1h-49.4l-.1-28.7h56v-11.2z" fill="#232871"/><path d="M160.1 81.1l-18.6-81h-14.9l-18.6 81-18.6-81h-13.8l23 90.8h18.1c2.4-11 14-56.1 17.4-74 2 10 17.1 72.9 17.4 74h18.1l23-90.8h-13.8l-18.7 81z" fill="#232871"/><path d="M319 42.1c-9.3 0-15.8-7.1-15.8-16.9 0-9.8 6.5-16.9 15.8-16.9s15.8 7.1 15.8 16.9c0 9.8-6.5 16.9-15.8 16.9zm0-3.8c6.9 0 11.6-5.5 11.6-13.1s-4.7-13.1-11.6-13.1c-6.9 0-11.6 5.5-11.6 13.1s4.6 13.1 11.6 13.1zm-4.4-38.3c1.5 0 2.5 1 2.5 2.5 0 1.4-1 2.4-2.5 2.4-1.4 0-2.5-1-2.5-2.4.1-1.5 1.1-2.5 2.5-2.5zm8.7 0c1.4 0 2.5 1 2.5 2.5 0 1.4-1 2.4-2.5 2.4-1.4 0-2.5-1-2.5-2.4 0-1.5 1.1-2.5 2.5-2.5z" fill="#232871"/><path d="M342.6 33.9c.1 2.8 2.7 4.9 6.7 4.9 3.4 0 5.8-1.5 5.8-3.7 0-3-2.7-3.3-6.3-3.7-5.4-.7-9.7-1.8-9.7-6.8 0-4.4 4-7.3 9.5-7.3s9.5 2.6 9.9 7.6h-4c-.3-2.5-2.6-4.3-5.9-4.3-3.4 0-5.6 1.4-5.6 3.7 0 2.7 2.6 3 6.1 3.4 5.5.7 9.9 1.7 9.9 7.1 0 4.5-4.3 7.3-9.7 7.3-6.3 0-10.6-2.9-10.7-8.2h4z" fill="#232871"/><path d="M365.3 21.2h-4.4v-3.6h4.4v-6.8h3.9v6.8h6.3v3.6h-6.3v14.3c0 2 .7 2.8 2.8 2.8h3.8v3.6h-4.2c-4.6 0-6.3-2-6.3-6.3v-14.4z" fill="#232871"/><path d="M377.7 29.8c0-7.3 4.6-12.4 11.5-12.4s11.3 4.3 11.5 11.5c0 .5 0 1.1-.1 1.7h-18.8v.3c.1 4.6 3 7.8 7.6 7.8 3.4 0 6.1-1.8 6.9-4.9h3.9c-.9 4.8-4.9 8.4-10.5 8.4-7.3-.1-12-5-12-12.4zm18.8-2.5c-.4-4.2-3.2-6.5-7.3-6.5-3.6 0-6.8 2.6-7.2 6.5h14.5z" fill="#232871"/><path d="M417.6 17.7v3.8h-2c-5.1 0-6.4 4.2-6.4 8.1v12.3h-3.9v-24.2h3.4l.5 3.7c1.1-1.8 3-3.7 7.3-3.7h1.1z" fill="#232871"/><path d="M433.2 17.7v3.8h-1.9c-5.1 0-6.4 4.2-6.4 8.1v12.3h-3.9v-24.2h3.4l.5 3.7c1.1-1.8 3-3.7 7.3-3.7h1z" fill="#232871"/><path d="M435.2 29.8c0-7.3 4.6-12.4 11.5-12.4s11.3 4.3 11.5 11.5c0 .5 0 1.1-.1 1.7h-18.8v.3c.1 4.6 3 7.8 7.6 7.8 3.4 0 6.1-1.8 6.9-4.9h3.9c-.9 4.8-4.9 8.4-10.5 8.4-7.3-.1-12-5-12-12.4zm18.8-2.5c-.4-4.2-3.2-6.5-7.3-6.5-3.6 0-6.8 2.6-7.2 6.5h14.5z" fill="#232871"/><path d="M462.2 11.1c0-1.5 1.1-2.5 2.5-2.5s2.5 1 2.5 2.5-1.1 2.5-2.5 2.5-2.5-1-2.5-2.5zm.5 6.6h3.9v24.2h-3.9v-24.2z" fill="#232871"/><path d="M471 29.8c0-7.4 4.8-12.4 11.8-12.4 5.9 0 9.7 3.3 10.7 8.6h-4.1c-.7-3.2-3.1-5.2-6.6-5.2-4.6 0-7.8 3.7-7.8 9s3.1 8.9 7.8 8.9c3.5 0 5.8-2 6.6-5.1h4.1c-.9 5.2-4.9 8.5-10.8 8.5-7 0-11.7-4.8-11.7-12.3z" fill="#232871"/><path d="M519.7 28.4v13.5h-3.9v-13.2c0-5-2.4-7.7-6.6-7.7-4.5 0-7.3 3.4-7.3 8.8v12.1h-3.9v-33.2h3.9v13c1.4-2.3 3.9-4.3 8-4.3 5.4 0 9.8 3 9.8 11z" fill="#232871"/><path d="M524.5 11.1c0-1.5 1.1-2.5 2.5-2.5s2.5 1 2.5 2.5-1.1 2.5-2.5 2.5-2.5-1-2.5-2.5zm.5 6.6h3.9v24.2h-3.9v-24.2z" fill="#232871"/><path d="M537.3 33.9c.1 2.8 2.7 4.9 6.7 4.9 3.4 0 5.8-1.5 5.8-3.7 0-3-2.7-3.3-6.3-3.7-5.4-.7-9.7-1.8-9.7-6.8 0-4.4 4-7.3 9.5-7.3s9.5 2.6 9.9 7.6h-4c-.3-2.5-2.6-4.3-5.9-4.3-3.4 0-5.6 1.4-5.6 3.7 0 2.7 2.6 3 6.1 3.4 5.5.7 9.9 1.7 9.9 7.1 0 4.5-4.3 7.3-9.7 7.3-6.3 0-10.6-2.9-10.7-8.2h4z" fill="#232871"/><path d="M557.1 29.8c0-7.4 4.8-12.4 11.8-12.4 5.9 0 9.7 3.3 10.7 8.6h-4.1c-.7-3.2-3.1-5.2-6.6-5.2-4.6 0-7.8 3.7-7.8 9s3.1 8.9 7.8 8.9c3.5 0 5.8-2 6.6-5.1h4.1c-.9 5.2-4.9 8.5-10.8 8.5-7.1 0-11.7-4.8-11.7-12.3z" fill="#232871"/><path d="M605.7 28.4v13.5h-3.9v-13.2c0-5-2.4-7.7-6.6-7.7-4.5 0-7.3 3.4-7.3 8.8v12.1h-3.9v-33.2h3.9v13c1.4-2.3 3.9-4.3 8-4.3 5.4 0 9.8 3 9.8 11z" fill="#232871"/><path d="M610 29.8c0-7.3 4.6-12.4 11.5-12.4s11.3 4.3 11.5 11.5c0 .5 0 1.1-.1 1.7h-18.8v.3c.1 4.6 3 7.8 7.6 7.8 3.4 0 6.1-1.8 6.9-4.9h3.9c-.9 4.8-4.9 8.4-10.5 8.4-7.2-.1-12-5-12-12.4zm18.8-2.5c-.4-4.2-3.2-6.5-7.3-6.5-3.6 0-6.8 2.6-7.2 6.5h14.5z" fill="#232871"/><path d="M649.9 17.7v3.8h-1.9c-5.1 0-6.4 4.2-6.4 8.1v12.3h-4v-24.2h3.4l.5 3.7c1.1-1.8 3-3.7 7.3-3.7h1.1z" fill="#232871"/><path d="M301.9 57.7h4.3l7.8 27.9 8.2-27.9h4.2l7.9 27.9 7.8-27.9h4.3l-9.7 33.2h-5.1l-7.6-26.3-7.5 26.3h-4.9l-9.7-33.2z" fill="#232871"/><path d="M349.1 60.1c0-1.5 1.1-2.5 2.5-2.5s2.5 1 2.5 2.5-1.1 2.5-2.5 2.5-2.5-1-2.5-2.5zm.6 6.6h3.9v24.2h-3.9v-24.2z" fill="#232871"/><path d="M361.9 82.9c.1 2.8 2.7 4.9 6.7 4.9 3.4 0 5.8-1.5 5.8-3.7 0-3-2.7-3.3-6.3-3.7-5.4-.7-9.7-1.8-9.7-6.8 0-4.4 4-7.3 9.5-7.3s9.5 2.6 9.9 7.6h-4c-.3-2.5-2.6-4.3-5.9-4.3-3.4 0-5.6 1.4-5.6 3.7 0 2.7 2.6 3 6.1 3.4 5.5.7 9.9 1.7 9.9 7.1 0 4.5-4.3 7.3-9.7 7.3-6.3 0-10.6-2.9-10.7-8.2h4z" fill="#232871"/><path d="M385.5 82.9c.1 2.8 2.7 4.9 6.7 4.9 3.4 0 5.8-1.5 5.8-3.7 0-3-2.7-3.3-6.3-3.7-5.4-.7-9.7-1.8-9.7-6.8 0-4.4 4-7.3 9.5-7.3s9.5 2.6 9.9 7.6h-4c-.3-2.5-2.6-4.3-5.9-4.3-3.4 0-5.6 1.4-5.6 3.7 0 2.7 2.6 3 6.1 3.4 5.5.7 9.9 1.7 9.9 7.1 0 4.5-4.3 7.3-9.7 7.3-6.3 0-10.6-2.9-10.7-8.2h4z" fill="#232871"/><path d="M405.3 78.8c0-7.3 4.6-12.4 11.5-12.4 6.8 0 11.3 4.3 11.5 11.5 0 .5 0 1.1-.1 1.7h-18.8v.3c.1 4.6 3 7.8 7.6 7.8 3.4 0 6.1-1.8 6.9-4.9h3.9c-.9 4.8-4.9 8.4-10.5 8.4-7.2-.1-12-5-12-12.4zm18.8-2.5c-.4-4.2-3.2-6.5-7.3-6.5-3.6 0-6.8 2.6-7.2 6.5h14.5z" fill="#232871"/><path d="M454.3 77.4v13.5h-3.9v-13.2c0-5-2.3-7.7-6.5-7.7-4.6 0-7.3 3.4-7.3 8.8v12.1h-3.9v-24.2h3.4l.5 3.3c1.4-1.8 3.9-3.6 8-3.6 5.4 0 9.7 3 9.7 11z" fill="#232871"/><path d="M462.3 82.9c.1 2.8 2.7 4.9 6.7 4.9 3.4 0 5.8-1.5 5.8-3.7 0-3-2.7-3.3-6.3-3.7-5.4-.7-9.7-1.8-9.7-6.8 0-4.4 4-7.3 9.5-7.3s9.5 2.6 9.9 7.6h-4c-.3-2.5-2.6-4.3-5.9-4.3-3.4 0-5.6 1.4-5.6 3.7 0 2.7 2.6 3 6.1 3.4 5.5.7 9.9 1.7 9.9 7.1 0 4.5-4.3 7.3-9.7 7.3-6.3 0-10.6-2.9-10.7-8.2h4z" fill="#232871"/><path d="M482.1 78.8c0-7.4 4.8-12.4 11.8-12.4 5.9 0 9.7 3.3 10.7 8.6h-4.1c-.7-3.2-3.1-5.2-6.6-5.2-4.6 0-7.8 3.7-7.8 9s3.1 8.9 7.8 8.9c3.5 0 5.8-2 6.6-5.1h4.1c-.9 5.2-4.9 8.5-10.8 8.5-7 0-11.7-4.7-11.7-12.3z" fill="#232871"/><path d="M530.5 77.4v13.5h-3.9v-13.2c0-5-2.4-7.7-6.6-7.7-4.5 0-7.3 3.4-7.3 8.8v12.1h-3.9v-33.2h3.9v13c1.4-2.3 3.9-4.3 8-4.3 5.4 0 9.8 3 9.8 11z" fill="#232871"/><path d="M558.1 87.3v3.6h-2.1c-3.2 0-4.3-1.4-4.4-3.7-1.5 2.2-3.9 4-8.1 4-5.3 0-8.9-2.7-8.9-7.1 0-4.8 3.4-7.5 9.7-7.5h7.1v-1.7c0-3.1-2.2-5-6-5-3.4 0-5.7 1.6-6.2 4.1h-3.9c.6-4.7 4.4-7.5 10.2-7.5 6.2 0 9.7 3.1 9.7 8.7v10.6c0 1.3.5 1.6 1.6 1.6h1.3v-.1zm-6.7-7.5h-7.5c-3.5 0-5.4 1.3-5.4 4 0 2.4 2 4 5.3 4 4.8 0 7.6-2.8 7.6-6.8v-1.2z" fill="#232871"/><path d="M587 87.3v3.6h-4.5c-4.6 0-6.3-2-6.3-6.3v-14.3h-9.4v20.6h-3.9v-20.6h-4.4v-3.6h4.4v-2.7c0-4.3 1.8-6.3 6.3-6.3h3.7v3.6h-3.5c-1.9 0-2.7.8-2.7 2.7v2.8h9.4v-6.8h3.9v6.8h6.1v3.6h-6.1v14.3c0 2 .7 2.8 2.7 2.8h4.3v-.2z" fill="#232871"/><path d="M593.3 82.9c.1 2.8 2.7 4.9 6.7 4.9 3.4 0 5.8-1.5 5.8-3.7 0-3-2.7-3.3-6.3-3.7-5.4-.7-9.7-1.8-9.7-6.8 0-4.4 4-7.3 9.5-7.3s9.5 2.6 9.9 7.6h-4c-.3-2.5-2.6-4.3-5.9-4.3-3.4 0-5.6 1.4-5.6 3.7 0 2.7 2.6 3 6.1 3.4 5.5.7 9.9 1.7 9.9 7.1 0 4.5-4.3 7.3-9.7 7.3-6.3 0-10.6-2.9-10.7-8.2h4z" fill="#232871"/><path d="M611.3 66.7h4.5v-2.7c0-4.3 1.8-6.3 6.3-6.3h4.4v3.6h-4.2c-1.9 0-2.7.8-2.7 2.7v2.8h6.8v3.6h-6.8v20.6h-3.9v-20.6h-4.4v-3.7z" fill="#232871"/><path d="M628.5 78.8c0-7.3 4.9-12.4 12-12.4s12 5 12 12.4c0 7.3-4.9 12.4-12 12.4-7.1-.1-12-5.1-12-12.4zm20 0c0-5.2-3.2-8.9-8-8.9s-8 3.7-8 8.9 3.2 8.9 8 8.9 8-3.8 8-8.9z" fill="#232871"/><path d="M678.5 77.4v13.5h-3.9v-13.2c0-5-2.3-7.7-6.5-7.7-4.6 0-7.3 3.4-7.3 8.8v12.1h-3.9v-24.2h3.4l.5 3.3c1.4-1.8 3.9-3.6 8-3.6 5.4 0 9.7 3 9.7 11z" fill="#232871"/><path d="M702.6 57.7h3.9v33.2h-3.4l-.5-3.9c-1.6 2.2-4.2 4.2-8.3 4.2-6.7 0-11.6-4.5-11.6-12.4 0-7.4 4.9-12.4 11.6-12.4 4.1 0 6.8 1.7 8.3 4v-12.7zm0 21.2c0-5.3-3.2-9-8-9s-8 3.7-8 8.9c0 5.3 3.2 8.9 8 8.9s8-3.7 8-8.8z" fill="#232871"/><path d="M714.7 82.9c.1 2.8 2.7 4.9 6.7 4.9 3.4 0 5.8-1.5 5.8-3.7 0-3-2.7-3.3-6.3-3.7-5.4-.7-9.7-1.8-9.7-6.8 0-4.4 4-7.3 9.5-7.3s9.5 2.6 9.9 7.6h-4c-.3-2.5-2.6-4.3-5.9-4.3-3.4 0-5.6 1.4-5.6 3.7 0 2.7 2.6 3 6.1 3.4 5.5.7 9.9 1.7 9.9 7.1 0 4.5-4.3 7.3-9.7 7.3-6.3 0-10.6-2.9-10.7-8.2h4z" fill="#232871"/></svg>